<svg width="72" height="72" viewBox="0 0 72 72" fill="none" xmlns="http://www.w3.org/2000/svg">
<g id="Group 427325281">
<circle id="Ellipse 2058" cx="35.9999" cy="35.9999" r="24.9558" transform="rotate(-135 35.9999 35.9999)" fill="white" stroke="#77CFD0"/>
<g id="arrow">
<path id="Vector" d="M44.4776 37.3921C44.4295 37.4481 44.3629 37.4831 44.2892 37.4831L31.8944 37.4836L37.2366 43.7039C37.2739 43.7473 37.2992 43.8025 37.3095 43.8627C37.3198 43.9229 37.3146 43.9852 37.2945 44.0419C37.2743 44.0985 37.2402 44.1469 37.1964 44.181C37.1526 44.2151 37.1011 44.2332 37.0485 44.2333L33.3876 44.2326C33.3526 44.2326 33.318 44.2246 33.2857 44.209C33.2533 44.1934 33.224 44.1705 33.1993 44.1416L26.1082 35.8852C26.0043 35.7642 26.0043 35.5676 26.1082 35.4466L33.1994 27.19C33.2493 27.1319 33.3172 27.099 33.3878 27.099L37.0484 27.0987C37.1561 27.0987 37.2531 27.1742 37.2944 27.29C37.3357 27.4058 37.3127 27.5394 37.2365 27.6281L31.8943 33.8482L44.2895 33.8492C44.4368 33.8492 44.556 33.988 44.5558 34.1593L44.5558 37.1728C44.5558 37.2136 44.5489 37.2539 44.5355 37.2916C44.5221 37.3292 44.5024 37.3634 44.4776 37.3921Z" fill="#55C3C4"/>
</g>
</g>
</svg>
