<svg width="24" height="24" viewBox="0 0 24 24" fill="none" xmlns="http://www.w3.org/2000/svg">
<g id="Custom arrow">
<path id="Vector" d="M15.9973 13.5428L10.7188 18.8208C10.682 18.8576 10.6569 18.9045 10.6467 18.9556C10.6366 19.0066 10.6417 19.0595 10.6616 19.1076C10.6815 19.1557 10.7153 19.1968 10.7585 19.2257C10.8018 19.2546 10.8526 19.27 10.9047 19.27L14.5218 19.2695C14.5564 19.2695 14.5907 19.2627 14.6226 19.2494C14.6545 19.2362 14.6836 19.2167 14.708 19.1923L21.7144 12.1866C21.8172 12.0838 21.8172 11.917 21.7144 11.8143L14.7078 4.80846C14.6586 4.75921 14.5915 4.73125 14.5217 4.73125L10.9048 4.73102C10.7983 4.73102 10.7025 4.79512 10.6617 4.89338C10.6209 4.99163 10.6436 5.10498 10.7189 5.18022L15.9973 10.4581C14.2435 10.4582 7.18333 10.5049 4.55922 10.5227C4.01076 10.5264 3.56931 10.9712 3.56771 11.5196L3.56494 12.4658C3.56334 13.0161 4.00553 13.4642 4.55589 13.4685C7.20577 13.4889 14.3504 13.5428 15.9973 13.5428Z" fill="#F58F5D"/>
</g>
</svg>
