<svg width="48" height="48" viewBox="0 0 48 48" fill="none" xmlns="http://www.w3.org/2000/svg">
<g id="giao h&#195;&#160;ng" clip-path="url(#clip0_1627_3909)">
<g id="cube">
<g id="accent" filter="url(#filter0_bi_1627_3909)">
<path d="M25.0317 9.84843C24.9275 9.65883 24.7754 9.49988 24.5906 9.38742L14.5959 3.27939C14.3999 3.15974 14.1746 3.09644 13.945 3.09644C13.7153 3.09644 13.4901 3.15974 13.2941 3.27939L3.29933 9.38742C3.11454 9.49988 2.96248 9.65883 2.85832 9.84843L13.945 16.6248L25.0317 9.84843Z" fill="url(#paint0_linear_1627_3909)"/>
<path d="M2.85832 9.84843C2.75527 10.0338 2.6999 10.2433 2.69971 10.4554V21.547C2.69983 21.7611 2.75492 21.9714 2.85971 22.1581C2.9645 22.3447 3.11547 22.5012 3.29814 22.6127L13.2929 28.7207C13.4888 28.8406 13.7141 28.9042 13.9438 28.9044L13.945 16.6248L2.85832 9.84843Z" fill="url(#paint1_linear_1627_3909)"/>
<path d="M25.0317 9.84843C25.1347 10.0338 25.1877 10.2433 25.1879 10.4554V21.547C25.1878 21.7611 25.1327 21.9714 25.0279 22.1581C24.9231 22.3447 24.7721 22.5012 24.5894 22.6127L14.5947 28.7207C14.3987 28.8406 14.1735 28.9042 13.9438 28.9044L13.945 16.6248L25.0317 9.84843Z" fill="url(#paint2_linear_1627_3909)"/>
</g>
<g id="accent_2" filter="url(#filter1_bi_1627_3909)">
<path d="M25.0317 9.84843C24.9275 9.65883 24.7754 9.49988 24.5906 9.38742L14.5959 3.27939C14.3999 3.15974 14.1746 3.09644 13.945 3.09644C13.7153 3.09644 13.4901 3.15974 13.2941 3.27939L3.29933 9.38742C3.11454 9.49988 2.96248 9.65883 2.85832 9.84843L13.945 16.6248L25.0317 9.84843Z" fill="url(#paint3_linear_1627_3909)"/>
<path d="M2.85832 9.84843C2.75527 10.0338 2.6999 10.2433 2.69971 10.4554V21.547C2.69983 21.7611 2.75492 21.9714 2.85971 22.1581C2.9645 22.3447 3.11547 22.5012 3.29814 22.6127L13.2929 28.7207C13.4888 28.8406 13.7141 28.9042 13.9438 28.9044L13.945 16.6248L2.85832 9.84843Z" fill="url(#paint4_linear_1627_3909)"/>
<path d="M25.0317 9.84843C25.1347 10.0338 25.1877 10.2433 25.1879 10.4554V21.547C25.1878 21.7611 25.1327 21.9714 25.0279 22.1581C24.9231 22.3447 24.7721 22.5012 24.5894 22.6127L14.5947 28.7207C14.3987 28.8406 14.1735 28.9042 13.9438 28.9044L13.945 16.6248L25.0317 9.84843Z" fill="url(#paint5_linear_1627_3909)"/>
</g>
<g id="glass" filter="url(#filter2_bi_1627_3909)">
<path d="M27.6914 8.37201C27.5622 8.13693 27.3737 7.93983 27.1445 7.80039L14.7518 0.226855C14.5087 0.0784931 14.2295 0 13.9447 0C13.6599 0 13.3807 0.0784931 13.1376 0.226855L0.744829 7.80039C0.515702 7.93983 0.327152 8.13693 0.197998 8.37201L13.9447 16.7743L27.6914 8.37201Z" fill="#55D5D2"/>
<path d="M13.9447 0.6C14.1192 0.6 14.2902 0.648091 14.4392 0.738989L26.7351 8.25332L13.9447 16.0711L1.1543 8.25332L13.4502 0.738989C13.5991 0.648091 13.7702 0.6 13.9447 0.6Z" stroke="url(#paint6_linear_1627_3909)" stroke-opacity="0.1" stroke-width="1.2"/>
</g>
<g id="glass_2" filter="url(#filter3_bi_1627_3909)">
<path d="M0.195186 8.37329C0.0674146 8.6031 0.000243669 8.86166 0 9.1246L0 22.8775C0.000147748 23.1429 0.0684617 23.4037 0.198392 23.6351C0.328323 23.8665 0.515514 24.0606 0.742018 24.1989L13.1348 31.7724C13.3778 31.9211 13.657 31.9999 13.9419 32.0001V16.7756L0.195186 8.37329Z" fill="#55D5D2"/>
<path d="M1.05462 23.6867L1.05489 23.6869L13.3419 31.1958V17.1121L0.6 9.32393V22.8773L1.05462 23.6867ZM1.05462 23.6867C0.915843 23.602 0.801156 23.4831 0.72155 23.3413C0.642 23.1997 0.600148 23.04 0.6 22.8775L1.05462 23.6867Z" stroke="url(#paint7_linear_1627_3909)" stroke-opacity="0.1" stroke-width="1.2"/>
</g>
<g id="glass_3" filter="url(#filter4_bi_1627_3909)">
<path d="M27.6876 8.37329C27.8154 8.6031 27.8826 8.86166 27.8828 9.1246V22.8775C27.8826 23.1429 27.8143 23.4037 27.6844 23.6351C27.5545 23.8665 27.3673 24.0606 27.1408 24.1989L14.748 31.7724C14.505 31.9211 14.2258 31.9999 13.9409 32.0001V16.7756L27.6876 8.37329Z" fill="#55D5D2"/>
<path d="M27.8828 9.1246L27.6085 9.12485L27.8828 22.8775V9.1246ZM27.8828 9.1246H27.6089L27.8741 8.96248C27.8798 9.01619 27.8827 9.0703 27.8828 9.1246ZM26.8282 23.6867L26.8279 23.6869L14.5409 31.1958V17.1121L27.2828 9.32393V22.8772C27.2827 23.0397 27.2408 23.1996 27.1612 23.3413C27.0816 23.4831 26.967 23.602 26.8282 23.6867Z" stroke="url(#paint8_linear_1627_3909)" stroke-opacity="0.1" stroke-width="1.2"/>
</g>
</g>
<g id="arrow">
<path id="Vector" d="M38.6084 8.34771H32.7795L37.2591 3.86806L35.7837 2.39258L29.5228 8.65345C29.1148 9.06145 29.1148 9.72093 29.5228 10.1289L35.7837 16.3898L37.2591 14.9143L32.7795 10.4347H38.6084C41.4852 10.4347 43.8258 12.7752 43.8258 15.6521H45.9127C45.9127 11.6242 42.6351 8.34771 38.6084 8.34771Z" fill="url(#paint9_linear_1627_3909)"/>
<path id="Vector_2" d="M12.2169 31.6104L10.7415 33.0858L15.2211 37.5655H9.39224C6.51537 37.5655 4.17485 35.225 4.17485 32.3481H2.08789C2.08789 36.3759 5.36546 39.6524 9.39224 39.6524H15.2211L10.7415 44.1321L12.2169 45.6076L18.4778 39.3467C18.8858 38.9387 18.8858 38.2792 18.4778 37.8712L12.2169 31.6104Z" fill="url(#paint10_linear_1627_3909)"/>
</g>
<g id="sphere">
<path id="accent_3" d="M34 44C39.5228 44 44 39.5228 44 34C44 28.4772 39.5228 24 34 24C28.4772 24 24 28.4772 24 34C24 39.5228 28.4772 44 34 44Z" fill="url(#paint11_linear_1627_3909)"/>
<g id="glass_4" filter="url(#filter5_bi_1627_3909)">
<path d="M34 48C41.732 48 48 41.732 48 34C48 26.268 41.732 20 34 20C26.268 20 20 26.268 20 34C20 41.732 26.268 48 34 48Z" fill="#55D5D2" fill-opacity="0.6"/>
<path d="M47.4 34C47.4 41.4006 41.4006 47.4 34 47.4C26.5994 47.4 20.6 41.4006 20.6 34C20.6 26.5994 26.5994 20.6 34 20.6C41.4006 20.6 47.4 26.5994 47.4 34Z" stroke="url(#paint12_linear_1627_3909)" stroke-opacity="0.1" stroke-width="1.2"/>
</g>
</g>
</g>
<defs>
<filter id="filter0_bi_1627_3909" x="-6.97825" y="-6.58152" width="41.8441" height="45.1639" filterUnits="userSpaceOnUse" color-interpolation-filters="sRGB">
<feFlood flood-opacity="0" result="BackgroundImageFix"/>
<feGaussianBlur in="BackgroundImageFix" stdDeviation="4.83898"/>
<feComposite in2="SourceAlpha" operator="in" result="effect1_backgroundBlur_1627_3909"/>
<feBlend mode="normal" in="SourceGraphic" in2="effect1_backgroundBlur_1627_3909" result="shape"/>
<feColorMatrix in="SourceAlpha" type="matrix" values="0 0 0 0 0 0 0 0 0 0 0 0 0 0 0 0 0 0 127 0" result="hardAlpha"/>
<feOffset dy="1.61299"/>
<feGaussianBlur stdDeviation="3.22599"/>
<feComposite in2="hardAlpha" operator="arithmetic" k2="-1" k3="1"/>
<feColorMatrix type="matrix" values="0 0 0 0 1 0 0 0 0 1 0 0 0 0 1 0 0 0 0.4 0"/>
<feBlend mode="normal" in2="shape" result="effect2_innerShadow_1627_3909"/>
</filter>
<filter id="filter1_bi_1627_3909" x="-6.97825" y="-6.58152" width="41.8441" height="45.1639" filterUnits="userSpaceOnUse" color-interpolation-filters="sRGB">
<feFlood flood-opacity="0" result="BackgroundImageFix"/>
<feGaussianBlur in="BackgroundImageFix" stdDeviation="4.83898"/>
<feComposite in2="SourceAlpha" operator="in" result="effect1_backgroundBlur_1627_3909"/>
<feBlend mode="normal" in="SourceGraphic" in2="effect1_backgroundBlur_1627_3909" result="shape"/>
<feColorMatrix in="SourceAlpha" type="matrix" values="0 0 0 0 0 0 0 0 0 0 0 0 0 0 0 0 0 0 127 0" result="hardAlpha"/>
<feOffset dy="1.61299"/>
<feGaussianBlur stdDeviation="3.22599"/>
<feComposite in2="hardAlpha" operator="arithmetic" k2="-1" k3="1"/>
<feColorMatrix type="matrix" values="0 0 0 0 1 0 0 0 0 1 0 0 0 0 1 0 0 0 0.4 0"/>
<feBlend mode="normal" in2="shape" result="effect2_innerShadow_1627_3909"/>
</filter>
<filter id="filter2_bi_1627_3909" x="-23.802" y="-24" width="75.4934" height="64.7743" filterUnits="userSpaceOnUse" color-interpolation-filters="sRGB">
<feFlood flood-opacity="0" result="BackgroundImageFix"/>
<feGaussianBlur in="BackgroundImageFix" stdDeviation="12"/>
<feComposite in2="SourceAlpha" operator="in" result="effect1_backgroundBlur_1627_3909"/>
<feBlend mode="normal" in="SourceGraphic" in2="effect1_backgroundBlur_1627_3909" result="shape"/>
<feColorMatrix in="SourceAlpha" type="matrix" values="0 0 0 0 0 0 0 0 0 0 0 0 0 0 0 0 0 0 127 0" result="hardAlpha"/>
<feOffset dy="8"/>
<feGaussianBlur stdDeviation="6"/>
<feComposite in2="hardAlpha" operator="arithmetic" k2="-1" k3="1"/>
<feColorMatrix type="matrix" values="0 0 0 0 1 0 0 0 0 1 0 0 0 0 1 0 0 0 0.4 0"/>
<feBlend mode="normal" in2="shape" result="effect2_innerShadow_1627_3909"/>
</filter>
<filter id="filter3_bi_1627_3909" x="-24" y="-15.6267" width="61.9419" height="71.6268" filterUnits="userSpaceOnUse" color-interpolation-filters="sRGB">
<feFlood flood-opacity="0" result="BackgroundImageFix"/>
<feGaussianBlur in="BackgroundImageFix" stdDeviation="12"/>
<feComposite in2="SourceAlpha" operator="in" result="effect1_backgroundBlur_1627_3909"/>
<feBlend mode="normal" in="SourceGraphic" in2="effect1_backgroundBlur_1627_3909" result="shape"/>
<feColorMatrix in="SourceAlpha" type="matrix" values="0 0 0 0 0 0 0 0 0 0 0 0 0 0 0 0 0 0 127 0" result="hardAlpha"/>
<feOffset dy="8"/>
<feGaussianBlur stdDeviation="6"/>
<feComposite in2="hardAlpha" operator="arithmetic" k2="-1" k3="1"/>
<feColorMatrix type="matrix" values="0 0 0 0 1 0 0 0 0 1 0 0 0 0 1 0 0 0 0.4 0"/>
<feBlend mode="normal" in2="shape" result="effect2_innerShadow_1627_3909"/>
</filter>
<filter id="filter4_bi_1627_3909" x="-10.0591" y="-15.6267" width="61.9419" height="71.6268" filterUnits="userSpaceOnUse" color-interpolation-filters="sRGB">
<feFlood flood-opacity="0" result="BackgroundImageFix"/>
<feGaussianBlur in="BackgroundImageFix" stdDeviation="12"/>
<feComposite in2="SourceAlpha" operator="in" result="effect1_backgroundBlur_1627_3909"/>
<feBlend mode="normal" in="SourceGraphic" in2="effect1_backgroundBlur_1627_3909" result="shape"/>
<feColorMatrix in="SourceAlpha" type="matrix" values="0 0 0 0 0 0 0 0 0 0 0 0 0 0 0 0 0 0 127 0" result="hardAlpha"/>
<feOffset dy="8"/>
<feGaussianBlur stdDeviation="6"/>
<feComposite in2="hardAlpha" operator="arithmetic" k2="-1" k3="1"/>
<feColorMatrix type="matrix" values="0 0 0 0 1 0 0 0 0 1 0 0 0 0 1 0 0 0 0.4 0"/>
<feBlend mode="normal" in2="shape" result="effect2_innerShadow_1627_3909"/>
</filter>
<filter id="filter5_bi_1627_3909" x="-4" y="-4" width="76" height="76" filterUnits="userSpaceOnUse" color-interpolation-filters="sRGB">
<feFlood flood-opacity="0" result="BackgroundImageFix"/>
<feGaussianBlur in="BackgroundImageFix" stdDeviation="12"/>
<feComposite in2="SourceAlpha" operator="in" result="effect1_backgroundBlur_1627_3909"/>
<feBlend mode="normal" in="SourceGraphic" in2="effect1_backgroundBlur_1627_3909" result="shape"/>
<feColorMatrix in="SourceAlpha" type="matrix" values="0 0 0 0 0 0 0 0 0 0 0 0 0 0 0 0 0 0 127 0" result="hardAlpha"/>
<feOffset dy="8"/>
<feGaussianBlur stdDeviation="6"/>
<feComposite in2="hardAlpha" operator="arithmetic" k2="-1" k3="1"/>
<feColorMatrix type="matrix" values="0 0 0 0 1 0 0 0 0 1 0 0 0 0 1 0 0 0 0.4 0"/>
<feBlend mode="normal" in2="shape" result="effect2_innerShadow_1627_3909"/>
</filter>
<linearGradient id="paint0_linear_1627_3909" x1="3.63671" y1="8.25803" x2="28.2629" y2="11.2384" gradientUnits="userSpaceOnUse">
<stop stop-color="#8AE6CF"/>
<stop offset="1" stop-color="#DFD6EE"/>
</linearGradient>
<linearGradient id="paint1_linear_1627_3909" x1="3.63671" y1="8.25803" x2="28.2629" y2="11.2384" gradientUnits="userSpaceOnUse">
<stop stop-color="#8AE6CF"/>
<stop offset="1" stop-color="#DFD6EE"/>
</linearGradient>
<linearGradient id="paint2_linear_1627_3909" x1="3.63671" y1="8.25803" x2="28.2629" y2="11.2384" gradientUnits="userSpaceOnUse">
<stop stop-color="#8AE6CF"/>
<stop offset="1" stop-color="#DFD6EE"/>
</linearGradient>
<linearGradient id="paint3_linear_1627_3909" x1="3.63671" y1="8.25803" x2="28.2629" y2="11.2384" gradientUnits="userSpaceOnUse">
<stop stop-color="#8AE6CF"/>
<stop offset="1" stop-color="#DFD6EE"/>
</linearGradient>
<linearGradient id="paint4_linear_1627_3909" x1="3.63671" y1="8.25803" x2="28.2629" y2="11.2384" gradientUnits="userSpaceOnUse">
<stop stop-color="#8AE6CF"/>
<stop offset="1" stop-color="#DFD6EE"/>
</linearGradient>
<linearGradient id="paint5_linear_1627_3909" x1="3.63671" y1="8.25803" x2="28.2629" y2="11.2384" gradientUnits="userSpaceOnUse">
<stop stop-color="#8AE6CF"/>
<stop offset="1" stop-color="#DFD6EE"/>
</linearGradient>
<linearGradient id="paint6_linear_1627_3909" x1="1.05717" y1="0.762469" x2="27.6914" y2="0.762469" gradientUnits="userSpaceOnUse">
<stop stop-color="#C8A6FF"/>
<stop offset="1" stop-color="#69CFB5"/>
</linearGradient>
<linearGradient id="paint7_linear_1627_3909" x1="0.435684" y1="9.44724" x2="13.9419" y2="9.44724" gradientUnits="userSpaceOnUse">
<stop stop-color="#C8A6FF"/>
<stop offset="1" stop-color="#69CFB5"/>
</linearGradient>
<linearGradient id="paint8_linear_1627_3909" x1="14.3766" y1="9.44724" x2="27.8828" y2="9.44724" gradientUnits="userSpaceOnUse">
<stop stop-color="#C8A6FF"/>
<stop offset="1" stop-color="#69CFB5"/>
</linearGradient>
<linearGradient id="paint9_linear_1627_3909" x1="29.9125" y1="5.19202" x2="47.9679" y2="8.18322" gradientUnits="userSpaceOnUse">
<stop stop-color="#8AE6CF"/>
<stop offset="1" stop-color="#DFD6EE"/>
</linearGradient>
<linearGradient id="paint10_linear_1627_3909" x1="2.78355" y1="34.4098" x2="20.839" y2="37.401" gradientUnits="userSpaceOnUse">
<stop stop-color="#8AE6CF"/>
<stop offset="1" stop-color="#DFD6EE"/>
</linearGradient>
<linearGradient id="paint11_linear_1627_3909" x1="24.8333" y1="28" x2="46.635" y2="31.028" gradientUnits="userSpaceOnUse">
<stop stop-color="#8AE6CF"/>
<stop offset="1" stop-color="#DFD6EE"/>
</linearGradient>
<linearGradient id="paint12_linear_1627_3909" x1="20.875" y1="21.2727" x2="48" y2="21.2727" gradientUnits="userSpaceOnUse">
<stop stop-color="#DFD6EE"/>
<stop offset="1" stop-color="#55D5D2"/>
</linearGradient>
<clipPath id="clip0_1627_3909">
<rect width="48" height="48" fill="white"/>
</clipPath>
</defs>
</svg>
