<svg width="72" height="72" viewBox="0 0 72 72" fill="none" xmlns="http://www.w3.org/2000/svg">
<circle cx="35.9998" cy="35.9999" r="24.9558" transform="rotate(45 35.9998 35.9999)" fill="white" stroke="#77CFD0"/>
<path d="M27.5201 33.9377C27.5682 33.8817 27.6349 33.8467 27.7085 33.8467L40.1034 33.8462L34.7611 27.626C34.7239 27.5826 34.6985 27.5273 34.6882 27.4671C34.6779 27.407 34.6832 27.3446 34.7033 27.2879C34.7234 27.2313 34.7576 27.1829 34.8013 27.1488C34.8451 27.1148 34.8966 27.0966 34.9492 27.0966L38.6101 27.0972C38.6451 27.0972 38.6797 27.1052 38.7121 27.1209C38.7444 27.1365 38.7738 27.1593 38.7985 27.1882L45.8895 35.4446C45.9935 35.5656 45.9935 35.7622 45.8895 35.8833L38.7983 44.1399C38.7485 44.1979 38.6806 44.2309 38.6099 44.2309L34.9493 44.2311C34.8416 44.2311 34.7447 44.1556 34.7033 44.0398C34.662 43.924 34.6851 43.7904 34.7612 43.7018L40.1034 37.4816L27.7083 37.4806C27.561 37.4806 27.4417 37.3418 27.442 37.1706L27.442 34.157C27.4419 34.1163 27.4488 34.0759 27.4622 34.0383C27.4756 34.0006 27.4953 33.9664 27.5201 33.9377Z" fill="#55C3C4"/>
</svg>
