<svg width="20" height="24" viewBox="0 0 20 24" fill="none" xmlns="http://www.w3.org/2000/svg">
<g id="Map icon animation">
<path id="Vector" d="M10 15.8584C10.5746 15.8584 11.0965 15.5822 11.3962 15.1195C13.4965 11.8776 16 7.60496 16 5.66075C16 2.5394 13.3084 0 10 0C6.69157 0 4 2.5394 4 5.66075C4 7.60496 6.50357 11.8776 8.60379 15.1195C8.90353 15.5822 9.42547 15.8584 10 15.8584ZM7.58834 5.27208C7.58834 4.01752 8.67022 2.99684 10 2.99684C11.3298 2.99684 12.4117 4.01752 12.4117 5.27208C12.4117 6.52667 11.3298 7.54735 10 7.54735C8.67022 7.54735 7.58834 6.52671 7.58834 5.27208Z" fill="#EEFBFB"/>
</g>
</svg>
